<?xml version="1.0" encoding="UTF-8" standalone="no"?><!DOCTYPE svg PUBLIC "-//W3C//DTD SVG 1.1//EN" "http://www.w3.org/Graphics/SVG/1.1/DTD/svg11.dtd"><svg width="100%" height="100%" viewBox="0 0 1668 1668" version="1.1" xmlns="http://www.w3.org/2000/svg" xmlns:xlink="http://www.w3.org/1999/xlink" xml:space="preserve" xmlns:serif="http://www.serif.com/" style="fill-rule:evenodd;clip-rule:evenodd;stroke-linejoin:round;stroke-miterlimit:2;"><rect id="Bitrise-Logo-Square-Purple-Background" serif:id="Bitrise Logo Square Purple Background" x="0.667" y="0.841" width="1666.67" height="1666.67" style="fill:none;"/><clipPath id="_clip1"><rect x="0.667" y="0.841" width="1666.67" height="1666.67"/></clipPath><g clip-path="url(#_clip1)"><rect x="0.667" y="0.841" width="1666.67" height="1666.67" style="fill:#6f309f;"/><path d="M834.003,1002.73c51.429,-0 93.12,-41.696 93.12,-93.125l-186.245,-0c-0,51.429 41.691,93.125 93.125,93.125Z" style="fill:#fff;fill-rule:nonzero;"/><path d="M625.861,794.603c-31.758,-0 -57.504,25.746 -57.504,57.5l115.004,-0c-0,-31.754 -25.746,-57.5 -57.5,-57.5Z" style="fill:#fff;fill-rule:nonzero;"/><path d="M1042.56,794.615c-31.759,0 -57.5,25.746 -57.5,57.5l114.996,0c-0,-31.754 -25.742,-57.5 -57.496,-57.5Z" style="fill:#fff;fill-rule:nonzero;"/><path d="M834.003,507.042c23.76,0 43.022,-19.262 43.022,-43.018c0,-23.766 -19.262,-43.027 -43.022,-43.027c-23.761,-0 -43.023,19.261 -43.023,43.027c-0,23.756 19.262,43.018 43.023,43.018Z" style="fill:#fff;fill-rule:nonzero;"/><path d="M1178.89,1050.8c-11.621,13.009 -27.629,20.621 -45.075,21.442c-71.883,3.363 -182.241,7.371 -299.816,7.371c-117.576,0 -227.934,-4.008 -299.817,-7.371c-17.446,-0.821 -33.454,-8.433 -45.079,-21.446c-11.592,-12.979 -17.346,-29.695 -16.204,-47.062c3.791,-57.5 8.92,-108.409 15.237,-151.308c9.375,-63.659 23.471,-128.292 33.65,-171.305c6.563,-27.762 30.104,-47.608 58.579,-49.379c52.125,-3.25 138.438,-7.125 253.634,-7.125c115.187,0 201.508,3.875 253.637,7.125c28.471,1.771 52.008,21.617 58.575,49.379c10.183,43.034 24.283,107.684 33.65,171.305c6.313,42.899 11.442,93.808 15.233,151.308c1.142,17.371 -4.612,34.087 -16.204,47.066Zm57.854,-206.749c-9.662,-65.646 -24.137,-132.034 -34.575,-176.167c-12.441,-52.584 -57.029,-90.171 -110.958,-93.529c-52.942,-3.3 -140.542,-7.238 -257.212,-7.238c-116.675,0 -204.275,3.938 -257.209,7.238c-53.933,3.358 -98.529,40.945 -110.962,93.529c-10.438,44.108 -24.904,110.475 -34.579,176.167c-6.542,44.412 -11.834,96.866 -15.721,155.899c-2.175,32.9 8.729,64.559 30.691,89.155c21.992,24.62 52.28,39.029 85.28,40.575c72.491,3.391 183.808,7.437 302.5,7.437c118.683,0 230.008,-4.046 302.5,-7.437c33,-1.546 63.283,-15.955 85.275,-40.575c21.966,-24.592 32.866,-56.25 30.691,-89.155c-3.891,-59.033 -9.179,-111.487 -15.721,-155.899Z" style="fill:#fff;fill-rule:nonzero;"/></g></svg>